<?xml version="1.0" standalone="no"?>
<!DOCTYPE svg PUBLIC "-//W3C//DTD SVG 20010904//EN"
 "http://www.w3.org/TR/2001/REC-SVG-20010904/DTD/svg10.dtd">
<svg version="1.0" xmlns="http://www.w3.org/2000/svg"
 width="1320.000000pt" height="582.000000pt" viewBox="0 0 1320.000000 582.000000"
 preserveAspectRatio="xMidYMid meet">

<g transform="translate(0.000000,582.000000) scale(0.100000,-0.100000)"
fill="#000000" stroke="none">
<path d="M680 4023 c-1 -220 42 -3047 46 -3060 2 -10 54 -13 213 -13 l211 0
17 28 c100 159 273 292 420 323 76 15 194 6 266 -21 111 -42 237 -146 324
-268 l45 -62 167 0 168 0 39 57 c85 124 212 228 333 274 70 26 189 35 261 20
135 -29 281 -135 390 -281 l52 -70 149 0 c142 0 149 1 149 20 0 18 -7 20 -67
20 -38 0 -105 3 -150 7 l-83 6 -24 53 c-74 162 -206 309 -329 368 -41 20 -83
36 -93 36 -46 1 -47 6 -34 186 7 93 13 310 14 481 l1 312 45 6 c193 26 370
100 480 202 38 36 70 69 70 74 0 5 -17 2 -37 -7 -141 -62 -328 -109 -478 -120
l-83 -7 -6 79 c-4 43 -8 99 -10 124 l-5 46 50 17 c72 26 161 113 204 201 61
124 77 242 50 380 -28 152 -115 280 -223 333 -47 23 -70 28 -132 28 -96 0
-153 -25 -223 -98 -150 -154 -184 -431 -80 -647 38 -78 134 -171 201 -195 l53
-19 -6 -76 c-3 -41 -8 -97 -12 -124 l-5 -49 -81 7 c-158 13 -364 70 -501 137
-32 16 -60 29 -63 29 -13 0 88 -108 137 -147 104 -83 281 -149 447 -168 l63
-7 0 -306 c0 -169 4 -368 10 -442 5 -74 9 -154 10 -177 l0 -42 -62 -17 c-79
-23 -189 -96 -252 -170 -49 -56 -139 -197 -151 -235 -7 -22 -35 -23 -246 -13
l-125 7 -33 63 c-94 181 -246 317 -395 355 l-49 12 7 71 c14 159 28 601 24
752 l-4 162 98 16 c186 31 344 105 451 212 31 32 57 62 57 66 0 5 -17 0 -37
-11 -114 -57 -336 -116 -486 -127 l-84 -7 -6 54 c-4 30 -7 80 -9 112 l-2 59
55 22 c101 41 166 106 203 206 14 39 16 87 14 384 -3 310 -4 340 -20 350 -13
8 -23 8 -35 0 -16 -10 -18 -41 -23 -350 -5 -306 -7 -342 -24 -374 -20 -38 -65
-90 -78 -90 -4 0 -8 176 -8 391 0 250 -4 397 -10 410 -14 25 -56 25 -70 0 -6
-13 -10 -168 -10 -435 l0 -415 -22 -3 c-13 -2 -35 -1 -50 1 l-28 3 -2 426 c-3
392 -4 426 -20 436 -13 8 -23 8 -35 0 -17 -10 -18 -43 -21 -413 -2 -437 -3
-438 -56 -368 -55 72 -56 81 -56 427 0 202 -4 328 -10 341 -13 23 -43 25 -65
3 -14 -15 -16 -52 -13 -353 4 -384 6 -393 86 -482 43 -49 144 -109 181 -109
11 0 13 -15 7 -77 -3 -42 -6 -94 -6 -116 l0 -40 -90 6 c-156 11 -367 67 -499
131 -30 14 -56 24 -58 22 -2 -2 21 -31 52 -64 102 -110 253 -187 436 -223 55
-10 111 -19 124 -19 l25 0 0 -267 c0 -246 13 -596 25 -684 5 -36 5 -37 -42
-48 -149 -38 -306 -178 -393 -350 l-22 -44 -141 7 c-78 3 -145 10 -148 14 -9
9 -58 2875 -50 2883 8 9 2885 29 2892 21 3 -4 22 -117 42 -252 20 -135 68
-454 107 -710 39 -256 74 -489 77 -517 3 -29 10 -53 15 -53 5 0 7 8 4 18 -2 9
-7 121 -11 247 -3 127 -8 253 -10 280 -2 28 -7 127 -10 220 -3 94 -10 274 -15
400 -5 127 -12 296 -16 378 l-6 147 -1614 0 -1614 0 0 -127z m2511 -364 c53
-27 125 -111 149 -177 74 -197 -5 -455 -164 -532 -197 -95 -412 180 -356 455
44 216 215 333 371 254z"/>
<path d="M11352 3768 c-21 -21 -13 -164 28 -488 39 -304 125 -899 137 -950 3
-14 14 -42 25 -62 16 -33 23 -38 54 -38 42 0 89 23 104 49 18 35 11 155 -25
402 -19 134 -35 245 -35 246 0 14 46 -4 100 -39 139 -89 439 -273 513 -315 92
-52 130 -55 135 -10 2 16 -4 40 -13 53 -16 25 -262 191 -465 314 -58 35 -111
69 -118 75 -10 9 20 24 140 69 215 82 242 94 256 117 15 23 8 39 -16 39 -10 0
-100 -25 -202 -56 -225 -67 -342 -96 -351 -86 -4 4 -19 88 -34 187 -35 237
-58 342 -91 410 -36 77 -107 118 -142 83z"/>
<path d="M7192 3753 c-18 -16 -23 -48 -46 -263 -14 -135 -28 -293 -32 -351
l-7 -106 -71 51 c-133 95 -274 141 -363 117 -73 -20 -134 -69 -167 -135 -24
-48 -30 -76 -34 -151 -6 -115 13 -179 71 -242 107 -116 367 -215 523 -199 73
8 69 13 79 -115 8 -95 10 -101 42 -118 33 -17 71 -13 94 10 21 21 22 25 13
213 -12 250 -10 1018 3 1121 11 89 2 153 -24 173 -24 17 -57 15 -81 -5z m-357
-757 c116 -31 206 -101 255 -199 26 -52 30 -71 30 -139 0 -70 -2 -78 -19 -78
-32 0 -203 47 -269 73 -72 30 -186 108 -203 139 -36 68 -28 140 21 190 24 24
36 28 82 28 29 0 76 -6 103 -14z"/>
<path d="M5015 3613 c-54 -14 -160 -103 -259 -218 -22 -25 -27 -28 -36 -15 -5
8 -10 29 -10 45 0 47 -25 75 -65 75 -26 0 -39 -6 -51 -25 -15 -23 -16 -47 -10
-208 8 -210 28 -455 57 -712 29 -252 44 -311 87 -322 14 -3 32 -1 41 4 50 31
51 241 2 573 -35 230 -37 264 -18 258 6 -3 38 -35 69 -72 106 -126 170 -284
228 -561 34 -158 52 -205 82 -205 50 0 49 173 -1 375 -50 198 -111 315 -245
469 -36 41 -66 79 -66 83 0 4 35 28 77 53 102 59 219 170 249 235 27 58 31
121 8 153 -12 18 -24 22 -67 21 -29 -1 -61 -4 -72 -6z m72 -55 c19 -25 -7 -80
-62 -132 -46 -45 -226 -166 -272 -183 -27 -10 -10 20 71 125 79 103 109 130
191 174 59 32 60 32 72 16z"/>
<path d="M8418 3591 c-55 -44 -66 -159 -74 -741 -6 -548 4 -612 97 -618 100
-7 108 35 112 559 3 293 5 352 18 360 7 5 105 9 215 9 111 0 225 5 255 10 64
12 132 54 127 78 -5 27 -127 42 -378 47 l-225 4 -6 88 c-7 95 -3 104 40 97 14
-2 144 -4 288 -5 283 0 302 3 337 55 9 14 16 27 16 30 0 24 -272 42 -696 45
-86 1 -105 -2 -126 -18z"/>
<path d="M5804 3291 c-103 -26 -213 -123 -264 -233 -55 -117 -73 -207 -73
-368 0 -132 2 -152 27 -225 33 -99 81 -165 143 -202 43 -25 58 -28 134 -28 78
0 90 3 134 30 69 42 144 140 211 271 60 119 65 149 24 149 -21 0 -33 -15 -81
-105 -59 -111 -117 -186 -155 -200 -32 -12 -88 6 -129 41 -31 27 -75 117 -75
153 0 8 22 18 56 24 85 17 170 68 255 152 120 119 165 248 124 355 -20 54 -95
135 -153 164 -46 23 -131 34 -178 22z m191 -176 c25 -14 48 -37 55 -55 16 -39
7 -109 -22 -170 -45 -94 -202 -217 -300 -235 -34 -7 -38 -5 -44 20 -11 46 4
172 32 253 34 104 70 150 148 195 42 24 82 21 131 -8z"/>
<path d="M9821 3278 c-88 -25 -195 -133 -252 -253 -148 -316 -90 -661 131
-764 47 -22 69 -26 146 -26 83 0 94 2 134 29 24 16 58 45 77 65 42 46 118 200
132 269 30 144 -6 429 -69 553 -49 96 -115 140 -207 138 -32 0 -73 -5 -92 -11z
m167 -135 c95 -72 162 -333 133 -523 -16 -103 -58 -190 -105 -220 -54 -33
-141 -26 -193 17 -88 70 -119 157 -110 308 11 163 70 334 145 417 31 34 39 38
66 32 17 -3 46 -17 64 -31z"/>
<path d="M10493 3278 c-30 -10 -33 -14 -33 -53 0 -81 55 -553 86 -740 21 -131
44 -228 56 -242 12 -15 76 -17 112 -3 14 5 28 20 32 34 5 21 -14 179 -58 479
-10 68 -9 85 6 135 19 58 51 120 95 182 38 53 114 130 128 130 20 0 31 -39 47
-161 14 -102 33 -159 56 -159 17 0 23 115 12 216 -16 145 -40 194 -97 194 -60
0 -174 -108 -242 -228 -36 -62 -33 -64 -62 50 -25 97 -65 178 -89 177 -9 -1
-32 -6 -49 -11z"/>
</g>
</svg>
